<mxfile host="Electron" modified="2023-06-04T07:20:04.470Z" agent="Mozilla/5.0 (Windows NT 10.0; Win64; x64) AppleWebKit/537.36 (KHTML, like Gecko) draw.io/21.2.1 Chrome/112.0.5615.87 Electron/24.1.2 Safari/537.36" etag="JXG1v1DDlupz2-FlLR4B" version="21.2.1" type="device">
  <diagram name="第 1 页" id="3_DbmMNCMY5CDfQfY0qz">
    <mxGraphModel dx="911" dy="592" grid="1" gridSize="10" guides="1" tooltips="1" connect="1" arrows="1" fold="1" page="1" pageScale="1" pageWidth="827" pageHeight="1169" math="0" shadow="0">
      <root>
        <mxCell id="0" />
        <mxCell id="1" parent="0" />
        <mxCell id="19T47tcoXjQTaWSJpksG-1" value="&lt;b&gt;&lt;font style=&quot;font-size: 20px;&quot;&gt;JavaScript的执行线程&lt;/font&gt;&lt;/b&gt;" style="text;html=1;strokeColor=none;fillColor=none;align=center;verticalAlign=middle;whiteSpace=wrap;rounded=0;shadow=1;" vertex="1" parent="1">
          <mxGeometry x="130" y="90" width="220" height="30" as="geometry" />
        </mxCell>
        <mxCell id="19T47tcoXjQTaWSJpksG-7" style="edgeStyle=orthogonalEdgeStyle;rounded=0;orthogonalLoop=1;jettySize=auto;html=1;exitX=1;exitY=0.5;exitDx=0;exitDy=0;entryX=0;entryY=0.5;entryDx=0;entryDy=0;strokeWidth=3;strokeColor=#0000CC;sketch=1;curveFitting=1;jiggle=2;shadow=1;" edge="1" parent="1" source="19T47tcoXjQTaWSJpksG-2" target="19T47tcoXjQTaWSJpksG-4">
          <mxGeometry relative="1" as="geometry" />
        </mxCell>
        <mxCell id="19T47tcoXjQTaWSJpksG-2" value="&lt;b&gt;&lt;font color=&quot;#000000&quot; style=&quot;font-size: 18px;&quot;&gt;任务1&lt;/font&gt;&lt;/b&gt;" style="rounded=1;whiteSpace=wrap;html=1;fillColor=#1ba1e2;fontColor=#ffffff;strokeColor=#006EAF;sketch=1;curveFitting=1;jiggle=2;glass=0;shadow=1;" vertex="1" parent="1">
          <mxGeometry x="180" y="210" width="120" height="60" as="geometry" />
        </mxCell>
        <mxCell id="19T47tcoXjQTaWSJpksG-3" value="" style="shape=flexArrow;endArrow=classic;html=1;rounded=0;endWidth=24;endSize=9.39;width=16;fillColor=#f0a30a;strokeColor=#FFAC30;shadow=1;sketch=1;curveFitting=1;jiggle=2;" edge="1" parent="1">
          <mxGeometry width="50" height="50" relative="1" as="geometry">
            <mxPoint x="239.5" y="125" as="sourcePoint" />
            <mxPoint x="239.5" y="195" as="targetPoint" />
          </mxGeometry>
        </mxCell>
        <mxCell id="19T47tcoXjQTaWSJpksG-8" style="edgeStyle=orthogonalEdgeStyle;rounded=0;orthogonalLoop=1;jettySize=auto;html=1;entryX=0;entryY=0.5;entryDx=0;entryDy=0;strokeWidth=3;strokeColor=#0000CC;sketch=1;curveFitting=1;jiggle=2;shadow=1;" edge="1" parent="1" source="19T47tcoXjQTaWSJpksG-4" target="19T47tcoXjQTaWSJpksG-5">
          <mxGeometry relative="1" as="geometry" />
        </mxCell>
        <mxCell id="19T47tcoXjQTaWSJpksG-4" value="&lt;b&gt;&lt;font color=&quot;#000000&quot; style=&quot;font-size: 18px;&quot;&gt;任务2&lt;/font&gt;&lt;/b&gt;" style="rounded=1;whiteSpace=wrap;html=1;fillColor=#1ba1e2;fontColor=#ffffff;strokeColor=#006EAF;sketch=1;curveFitting=1;jiggle=2;glass=0;shadow=1;" vertex="1" parent="1">
          <mxGeometry x="380" y="210" width="120" height="60" as="geometry" />
        </mxCell>
        <mxCell id="19T47tcoXjQTaWSJpksG-9" style="edgeStyle=orthogonalEdgeStyle;rounded=0;orthogonalLoop=1;jettySize=auto;html=1;entryX=0;entryY=0.5;entryDx=0;entryDy=0;strokeWidth=3;strokeColor=#0000CC;shadow=1;sketch=1;curveFitting=1;jiggle=2;" edge="1" parent="1" source="19T47tcoXjQTaWSJpksG-5" target="19T47tcoXjQTaWSJpksG-6">
          <mxGeometry relative="1" as="geometry" />
        </mxCell>
        <mxCell id="19T47tcoXjQTaWSJpksG-5" value="&lt;b&gt;&lt;font color=&quot;#000000&quot; style=&quot;font-size: 18px;&quot;&gt;任务3&lt;/font&gt;&lt;/b&gt;" style="rounded=1;whiteSpace=wrap;html=1;fillColor=#1ba1e2;fontColor=#ffffff;strokeColor=#006EAF;sketch=1;curveFitting=1;jiggle=2;glass=0;shadow=1;" vertex="1" parent="1">
          <mxGeometry x="580" y="210" width="120" height="60" as="geometry" />
        </mxCell>
        <mxCell id="19T47tcoXjQTaWSJpksG-6" value="&lt;b&gt;&lt;font color=&quot;#000000&quot; style=&quot;font-size: 18px;&quot;&gt;任务N...&lt;/font&gt;&lt;/b&gt;" style="rounded=1;whiteSpace=wrap;html=1;fillColor=#1ba1e2;fontColor=#ffffff;strokeColor=#006EAF;sketch=1;curveFitting=1;jiggle=2;glass=0;shadow=1;" vertex="1" parent="1">
          <mxGeometry x="780" y="210" width="120" height="60" as="geometry" />
        </mxCell>
        <mxCell id="19T47tcoXjQTaWSJpksG-10" value="&lt;span style=&quot;font-size: 20px;&quot;&gt;&lt;b&gt;待执行的任务队列&lt;/b&gt;&lt;/span&gt;" style="text;html=1;strokeColor=none;fillColor=none;align=center;verticalAlign=middle;whiteSpace=wrap;rounded=0;" vertex="1" parent="1">
          <mxGeometry x="430" y="300" width="220" height="30" as="geometry" />
        </mxCell>
      </root>
    </mxGraphModel>
  </diagram>
</mxfile>
